<svg viewBox="0 0 1200 630" xmlns="http://www.w3.org/2000/svg" font-family="'DejaVu Sans Mono','SF Mono',Menlo,Consolas,monospace">
<defs><linearGradient id="bg" x1="0" y1="0" x2="0" y2="1"><stop offset="0" stop-color="#181825"/><stop offset="1" stop-color="#11111b"/></linearGradient></defs>
<rect width="1200" height="630" fill="url(#bg)"/>
<circle cx="52" cy="50" r="9" fill="#f38ba8"/>
<circle cx="80" cy="50" r="9" fill="#f9e2af"/>
<circle cx="108" cy="50" r="9" fill="#a6e3a1"/>
<text x="144" y="57" font-size="22" fill="#bac2de">oauth ~ patterns</text>
<text x="1148" y="57" font-size="18" fill="#585b70" text-anchor="end">~/posts</text>
<line x1="52" y1="84" x2="1148" y2="84" stroke="#313244" stroke-width="2"/>
<text x="52" y="176" font-size="40"><tspan fill="#a6e3a1">$ </tspan><tspan fill="#cdd6f4">state, store, expect provider surprises</tspan></text>
<rect x="52" y="246" width="346.67" height="238" rx="14" fill="#1e1e2e" stroke="#a6e3a1" stroke-opacity="0.5" stroke-width="2"/>
<path d="M 225.33 304.1 L 250.75 316.06 L 250.75 338.49 Q 250.75 357.92 225.33 363.9 Q 199.92 357.92 199.92 338.49 L 199.92 316.06 Z" fill="none" stroke="#a6e3a1" stroke-width="3.59"/><path d="M 213.37 335.5 L 222.94 345.36 L 238.79 325.03" fill="none" stroke="#a6e3a1" stroke-width="3.59" stroke-linecap="round" stroke-linejoin="round"/>
<text x="72" y="418" font-size="26" fill="#cdd6f4">state param</text>
<text x="72" y="450" font-size="20" fill="#a6adc8">CSRF on callback</text>
<rect x="426.67" y="246" width="346.67" height="238" rx="14" fill="#1e1e2e" stroke="#fab387" stroke-opacity="0.5" stroke-width="2"/>
<path d="M 583.55 329.52 L 583.55 316.06 A 16.45 16.45 0 0 1 616.45 316.06 L 616.45 329.52" fill="none" stroke="#fab387" stroke-width="3.59"/><rect x="580.57" y="329.52" width="38.87" height="31.4" rx="5" fill="none" stroke="#fab387" stroke-width="3.59"/><circle cx="600" cy="343.57" r="4.78" fill="#fab387"/>
<text x="446.67" y="418" font-size="26" fill="#cdd6f4">vault storage</text>
<text x="446.67" y="450" font-size="20" fill="#a6adc8">tokens as credentials</text>
<rect x="801.33" y="246" width="346.67" height="238" rx="14" fill="#1e1e2e" stroke="#89b4fa" stroke-opacity="0.5" stroke-width="2"/>
<path d="M 959.72 304.1 Q 944.77 304.1 944.77 322.04 Q 944.77 334 937.29 334 Q 944.77 334 944.77 345.96 Q 944.77 363.9 959.72 363.9" fill="none" stroke="#89b4fa" stroke-width="3.59"/><path d="M 989.62 304.1 Q 1004.57 304.1 1004.57 322.04 Q 1004.57 334 1012.04 334 Q 1004.57 334 1004.57 345.96 Q 1004.57 363.9 989.62 363.9" fill="none" stroke="#89b4fa" stroke-width="3.59"/><circle cx="974.67" cy="334" r="5.98" fill="#89b4fa"/>
<text x="821.33" y="418" font-size="26" fill="#cdd6f4">extensible DTOs</text>
<text x="821.33" y="450" font-size="20" fill="#a6adc8">RFC 9207 iss surprise</text>
<text x="52" y="572" font-size="24"><tspan fill="#a6e3a1">$ </tspan><tspan fill="#7f849c">validate state, store in vault, stay extensible</tspan></text>
<text x="1148" y="572" font-size="22" fill="#45475a" text-anchor="end">@BrandonWie</text>
</svg>
