<svg viewBox="0 0 1200 630" xmlns="http://www.w3.org/2000/svg" font-family="'DejaVu Sans Mono','SF Mono',Menlo,Consolas,monospace">
<defs><linearGradient id="bg" x1="0" y1="0" x2="0" y2="1"><stop offset="0" stop-color="#181825"/><stop offset="1" stop-color="#11111b"/></linearGradient></defs>
<rect width="1200" height="630" fill="url(#bg)"/>
<circle cx="52" cy="50" r="9" fill="#f38ba8"/>
<circle cx="80" cy="50" r="9" fill="#f9e2af"/>
<circle cx="108" cy="50" r="9" fill="#a6e3a1"/>
<text x="144" y="57" font-size="22" fill="#bac2de">docker ~ checksums</text>
<text x="1148" y="57" font-size="18" fill="#585b70" text-anchor="end">~/posts</text>
<line x1="52" y1="84" x2="1148" y2="84" stroke="#313244" stroke-width="2"/>
<text x="52" y="176" font-size="40"><tspan fill="#a6e3a1">$ </tspan><tspan fill="#cdd6f4">verify every binary before you chmod +x</tspan></text>
<rect x="52" y="246" width="346.67" height="238" rx="14" fill="#1e1e2e" stroke="#a6e3a1" stroke-opacity="0.5" stroke-width="2"/>
<path d="M 225.33 304.1 L 250.75 316.06 L 250.75 338.49 Q 250.75 357.92 225.33 363.9 Q 199.92 357.92 199.92 338.49 L 199.92 316.06 Z" fill="none" stroke="#a6e3a1" stroke-width="3.59"/><path d="M 213.37 335.5 L 222.94 345.36 L 238.79 325.03" fill="none" stroke="#a6e3a1" stroke-width="3.59" stroke-linecap="round" stroke-linejoin="round"/>
<text x="72" y="418" font-size="26" fill="#cdd6f4">sha256sum -c</text>
<text x="72" y="450" font-size="20" fill="#a6adc8">compare hash, fail build</text>
<rect x="426.67" y="246" width="346.67" height="238" rx="14" fill="#1e1e2e" stroke="#fab387" stroke-opacity="0.5" stroke-width="2"/>
<rect x="565.62" y="308.58" width="68.77" height="50.83" rx="5" fill="none" stroke="#fab387" stroke-width="3.59"/><path d="M 582.06 328.02 L 595.52 337.59 L 582.06 347.16" fill="none" stroke="#fab387" stroke-width="3.23" stroke-linecap="round" stroke-linejoin="round"/><line x1="601.5" y1="347.16" x2="617.94" y2="347.16" stroke="#fab387" stroke-width="3.23" stroke-linecap="round"/>
<text x="446.67" y="418" font-size="26" fill="#cdd6f4">two-space delim</text>
<text x="446.67" y="450" font-size="20" fill="#a6adc8">one space silently fails</text>
<rect x="801.33" y="246" width="346.67" height="238" rx="14" fill="#1e1e2e" stroke="#89b4fa" stroke-opacity="0.5" stroke-width="2"/>
<path d="M 974.67 303.5 L 1007.56 316.06 L 974.67 328.62 L 941.78 316.06 Z" fill="#89b4fa" stroke="#89b4fa" stroke-width="3.05"/><path d="M 974.67 321.44 L 1007.56 334 L 974.67 346.56 L 941.78 334 Z" fill="none" stroke="#89b4fa" stroke-width="3.05"/><path d="M 974.67 339.38 L 1007.56 351.94 L 974.67 364.5 L 941.78 351.94 Z" fill="none" stroke="#89b4fa" stroke-width="3.05"/>
<text x="821.33" y="418" font-size="26" fill="#cdd6f4">per-arch hash</text>
<text x="821.33" y="450" font-size="20" fill="#a6adc8">amd64 vs arm64 differ</text>
<text x="52" y="572" font-size="24"><tspan fill="#a6e3a1">$ </tspan><tspan fill="#7f849c">download, verify, chmod -- every curl, every time</tspan></text>
<text x="1148" y="572" font-size="22" fill="#45475a" text-anchor="end">@BrandonWie</text>
</svg>
