<svg viewBox="0 0 1200 630" xmlns="http://www.w3.org/2000/svg" font-family="'DejaVu Sans Mono','SF Mono',Menlo,Consolas,monospace">
<defs><linearGradient id="bg" x1="0" y1="0" x2="0" y2="1"><stop offset="0" stop-color="#181825"/><stop offset="1" stop-color="#11111b"/></linearGradient></defs>
<rect width="1200" height="630" fill="url(#bg)"/>
<circle cx="52" cy="50" r="9" fill="#f38ba8"/>
<circle cx="80" cy="50" r="9" fill="#f9e2af"/>
<circle cx="108" cy="50" r="9" fill="#a6e3a1"/>
<text x="144" y="57" font-size="22" fill="#bac2de">ecr ~ token cron</text>
<text x="1148" y="57" font-size="18" fill="#585b70" text-anchor="end">~/posts</text>
<line x1="52" y1="84" x2="1148" y2="84" stroke="#313244" stroke-width="2"/>
<text x="52" y="176" font-size="40"><tspan fill="#a6e3a1">$ </tspan><tspan fill="#cdd6f4">refresh ecr token before its 12h expiry</tspan></text>
<rect x="52" y="246" width="346.67" height="238" rx="14" fill="#1e1e2e" stroke="#a6e3a1" stroke-opacity="0.5" stroke-width="2"/>
<circle cx="225.33" cy="334" r="27.51" fill="none" stroke="#a6e3a1" stroke-width="3.59"/><line x1="225.33" y1="334" x2="225.33" y2="317.56" stroke="#a6e3a1" stroke-width="3.23" stroke-linecap="round"/><line x1="225.33" y1="334" x2="237.89" y2="339.98" stroke="#a6e3a1" stroke-width="3.23" stroke-linecap="round"/>
<text x="72" y="418" font-size="26" fill="#cdd6f4">12h expiry</text>
<text x="72" y="450" font-size="20" fill="#a6adc8">ecr hard token limit</text>
<rect x="426.67" y="246" width="346.67" height="238" rx="14" fill="#1e1e2e" stroke="#fab387" stroke-opacity="0.5" stroke-width="2"/>
<rect x="565.62" y="308.58" width="68.77" height="50.83" rx="5" fill="none" stroke="#fab387" stroke-width="3.59"/><path d="M 582.06 328.02 L 595.52 337.59 L 582.06 347.16" fill="none" stroke="#fab387" stroke-width="3.23" stroke-linecap="round" stroke-linejoin="round"/><line x1="601.5" y1="347.16" x2="617.94" y2="347.16" stroke="#fab387" stroke-width="3.23" stroke-linecap="round"/>
<text x="446.67" y="418" font-size="26" fill="#cdd6f4">*/6 cron</text>
<text x="446.67" y="450" font-size="20" fill="#a6adc8">refresh before expiry</text>
<rect x="801.33" y="246" width="346.67" height="238" rx="14" fill="#1e1e2e" stroke="#89b4fa" stroke-opacity="0.5" stroke-width="2"/>
<circle cx="974.67" cy="334" r="18.54" fill="none" stroke="#89b4fa" stroke-width="3.59"/><line x1="996.19" y1="334" x2="1004.57" y2="334" stroke="#89b4fa" stroke-width="3.95" stroke-linecap="round"/><line x1="989.89" y1="349.22" x2="995.81" y2="355.14" stroke="#89b4fa" stroke-width="3.95" stroke-linecap="round"/><line x1="974.67" y1="355.53" x2="974.67" y2="363.9" stroke="#89b4fa" stroke-width="3.95" stroke-linecap="round"/><line x1="959.44" y1="349.22" x2="953.52" y2="355.14" stroke="#89b4fa" stroke-width="3.95" stroke-linecap="round"/><line x1="953.14" y1="334" x2="944.77" y2="334" stroke="#89b4fa" stroke-width="3.95" stroke-linecap="round"/><line x1="959.44" y1="318.78" x2="953.52" y2="312.86" stroke="#89b4fa" stroke-width="3.95" stroke-linecap="round"/><line x1="974.67" y1="312.47" x2="974.67" y2="304.1" stroke="#89b4fa" stroke-width="3.95" stroke-linecap="round"/><line x1="989.89" y1="318.78" x2="995.81" y2="312.86" stroke="#89b4fa" stroke-width="3.95" stroke-linecap="round"/><circle cx="974.67" cy="334" r="5.98" fill="#89b4fa"/>
<text x="821.33" y="418" font-size="26" fill="#cdd6f4">HOME + paths</text>
<text x="821.33" y="450" font-size="20" fill="#a6adc8">cron minimal env</text>
<text x="52" y="572" font-size="24"><tspan fill="#a6e3a1">$ </tspan><tspan fill="#7f849c">refresh every 6h; full paths, set HOME</tspan></text>
<text x="1148" y="572" font-size="22" fill="#45475a" text-anchor="end">@BrandonWie</text>
</svg>
