<svg viewBox="0 0 1200 630" xmlns="http://www.w3.org/2000/svg" font-family="'DejaVu Sans Mono','SF Mono',Menlo,Consolas,monospace">
<defs><linearGradient id="bg" x1="0" y1="0" x2="0" y2="1"><stop offset="0" stop-color="#181825"/><stop offset="1" stop-color="#11111b"/></linearGradient></defs>
<rect width="1200" height="630" fill="url(#bg)"/>
<circle cx="52" cy="50" r="9" fill="#f38ba8"/>
<circle cx="80" cy="50" r="9" fill="#f9e2af"/>
<circle cx="108" cy="50" r="9" fill="#a6e3a1"/>
<text x="144" y="57" font-size="22" fill="#bac2de">svelte ~ onMount</text>
<text x="1148" y="57" font-size="18" fill="#585b70" text-anchor="end">~/posts</text>
<line x1="52" y1="84" x2="1148" y2="84" stroke="#313244" stroke-width="2"/>
<text x="52" y="176" font-size="39"><tspan fill="#a6e3a1">$ </tspan><tspan fill="#cdd6f4">async onMount returns a Promise, not cleanup</tspan></text>
<rect x="52" y="246" width="346.67" height="238" rx="14" fill="#1e1e2e" stroke="#a6e3a1" stroke-opacity="0.5" stroke-width="2"/>
<circle cx="225.33" cy="334" r="27.51" fill="none" stroke="#a6e3a1" stroke-width="3.59"/><line x1="225.33" y1="334" x2="225.33" y2="317.56" stroke="#a6e3a1" stroke-width="3.23" stroke-linecap="round"/><line x1="225.33" y1="334" x2="237.89" y2="339.98" stroke="#a6e3a1" stroke-width="3.23" stroke-linecap="round"/>
<text x="72" y="418" font-size="26" fill="#cdd6f4">async return</text>
<text x="72" y="450" font-size="20" fill="#a6adc8">Promise, silently ignored</text>
<rect x="426.67" y="246" width="346.67" height="238" rx="14" fill="#1e1e2e" stroke="#fab387" stroke-opacity="0.5" stroke-width="2"/>
<circle cx="600" cy="334" r="18.54" fill="none" stroke="#fab387" stroke-width="3.59"/><line x1="621.53" y1="334" x2="629.9" y2="334" stroke="#fab387" stroke-width="3.95" stroke-linecap="round"/><line x1="615.22" y1="349.22" x2="621.14" y2="355.14" stroke="#fab387" stroke-width="3.95" stroke-linecap="round"/><line x1="600" y1="355.53" x2="600" y2="363.9" stroke="#fab387" stroke-width="3.95" stroke-linecap="round"/><line x1="584.78" y1="349.22" x2="578.86" y2="355.14" stroke="#fab387" stroke-width="3.95" stroke-linecap="round"/><line x1="578.47" y1="334" x2="570.1" y2="334" stroke="#fab387" stroke-width="3.95" stroke-linecap="round"/><line x1="584.78" y1="318.78" x2="578.86" y2="312.86" stroke="#fab387" stroke-width="3.95" stroke-linecap="round"/><line x1="600" y1="312.47" x2="600" y2="304.1" stroke="#fab387" stroke-width="3.95" stroke-linecap="round"/><line x1="615.22" y1="318.78" x2="621.14" y2="312.86" stroke="#fab387" stroke-width="3.95" stroke-linecap="round"/><circle cx="600" cy="334" r="5.98" fill="#fab387"/>
<text x="446.67" y="418" font-size="26" fill="#cdd6f4">onDestroy</text>
<text x="446.67" y="450" font-size="20" fill="#a6adc8">no return contract</text>
<rect x="801.33" y="246" width="346.67" height="238" rx="14" fill="#1e1e2e" stroke="#89b4fa" stroke-opacity="0.5" stroke-width="2"/>
<rect x="944.77" y="308.58" width="59.8" height="18.54" rx="3" fill="#89b4fa" opacity="0.5"/><rect x="944.77" y="340.58" width="44.85" height="18.54" rx="3" fill="none" stroke="#89b4fa" stroke-width="2.87"/><line x1="953.74" y1="317.85" x2="968.69" y2="317.85" stroke="#89b4fa" stroke-width="2.51" stroke-linecap="round"/><line x1="961.21" y1="310.38" x2="961.21" y2="325.33" stroke="#89b4fa" stroke-width="2.51" stroke-linecap="round"/><line x1="953.74" y1="349.85" x2="968.69" y2="349.85" stroke="#89b4fa" stroke-width="2.51" stroke-linecap="round"/>
<text x="821.33" y="418" font-size="26" fill="#cdd6f4">svelte-check</text>
<text x="821.33" y="450" font-size="20" fill="#a6adc8">stays green, hides bug</text>
<text x="52" y="572" font-size="24"><tspan fill="#a6e3a1">$ </tspan><tspan fill="#7f849c">move teardown to onDestroy when mount is async</tspan></text>
<text x="1148" y="572" font-size="22" fill="#45475a" text-anchor="end">@BrandonWie</text>
</svg>
