<svg viewBox="0 0 1200 630" xmlns="http://www.w3.org/2000/svg" font-family="'DejaVu Sans Mono','SF Mono',Menlo,Consolas,monospace">
<defs><linearGradient id="bg" x1="0" y1="0" x2="0" y2="1"><stop offset="0" stop-color="#181825"/><stop offset="1" stop-color="#11111b"/></linearGradient></defs>
<rect width="1200" height="630" fill="url(#bg)"/>
<circle cx="52" cy="50" r="9" fill="#f38ba8"/>
<circle cx="80" cy="50" r="9" fill="#f9e2af"/>
<circle cx="108" cy="50" r="9" fill="#a6e3a1"/>
<text x="144" y="57" font-size="22" fill="#bac2de">typeorm ~ cli</text>
<text x="1148" y="57" font-size="18" fill="#585b70" text-anchor="end">~/posts</text>
<line x1="52" y1="84" x2="1148" y2="84" stroke="#313244" stroke-width="2"/>
<text x="52" y="176" font-size="40"><tspan fill="#a6e3a1">$ </tspan><tspan fill="#cdd6f4">give the CLI an uninitialized datasource</tspan></text>
<rect x="52" y="246" width="346.67" height="238" rx="14" fill="#1e1e2e" stroke="#a6e3a1" stroke-opacity="0.5" stroke-width="2"/>
<path d="M 208.89 329.52 L 208.89 316.06 A 16.45 16.45 0 0 1 241.78 316.06 L 241.78 329.52" fill="none" stroke="#a6e3a1" stroke-width="3.59"/><rect x="205.9" y="329.52" width="38.87" height="31.4" rx="5" fill="none" stroke="#a6e3a1" stroke-width="3.59"/><circle cx="225.33" cy="343.57" r="4.78" fill="#a6e3a1"/>
<text x="72" y="418" font-size="26" fill="#cdd6f4">AlreadyConnected</text>
<text x="72" y="450" font-size="20" fill="#a6adc8">nest boots, db connects</text>
<rect x="426.67" y="246" width="346.67" height="238" rx="14" fill="#1e1e2e" stroke="#fab387" stroke-opacity="0.5" stroke-width="2"/>
<ellipse cx="600" cy="310.08" rx="28.4" ry="10.17" fill="none" stroke="#fab387" stroke-width="3.59"/><path d="M 571.6 310.08 L 571.6 357.92 A 28.4 10.17 0 0 0 628.41 357.92 L 628.41 310.08" fill="none" stroke="#fab387" stroke-width="3.59"/><path d="M 571.6 334 A 28.4 10.17 0 0 0 628.41 334" fill="none" stroke="#fab387" stroke-width="2.87" opacity="0.7"/>
<text x="446.67" y="418" font-size="26" fill="#cdd6f4">new DataSource</text>
<text x="446.67" y="450" font-size="20" fill="#a6adc8">create without connect</text>
<rect x="801.33" y="246" width="346.67" height="238" rx="14" fill="#1e1e2e" stroke="#89b4fa" stroke-opacity="0.5" stroke-width="2"/>
<line x1="956.73" y1="304.1" x2="956.73" y2="363.9" stroke="#89b4fa" stroke-width="3.59" stroke-linecap="round"/><circle cx="956.73" cy="304.1" r="7.18" fill="#89b4fa" stroke="#89b4fa" stroke-width="3.59"/><circle cx="956.73" cy="363.9" r="7.18" fill="none" stroke="#89b4fa" stroke-width="3.59"/><circle cx="995.6" cy="331.01" r="7.18" fill="none" stroke="#89b4fa" stroke-width="3.59"/><path d="M 956.73 339.98 Q 956.73 331.01 988.42 331.01" fill="none" stroke="#89b4fa" stroke-width="3.05"/>
<text x="821.33" y="418" font-size="26" fill="#cdd6f4">two configs</text>
<text x="821.33" y="450" font-size="20" fill="#a6adc8">local vs docker</text>
<text x="52" y="572" font-size="24"><tspan fill="#a6e3a1">$ </tspan><tspan fill="#7f849c">let the CLI own the connection lifecycle</tspan></text>
<text x="1148" y="572" font-size="22" fill="#45475a" text-anchor="end">@BrandonWie</text>
</svg>
