<svg viewBox="0 0 1200 630" xmlns="http://www.w3.org/2000/svg" font-family="'DejaVu Sans Mono','SF Mono',Menlo,Consolas,monospace">
<defs><linearGradient id="bg" x1="0" y1="0" x2="0" y2="1"><stop offset="0" stop-color="#181825"/><stop offset="1" stop-color="#11111b"/></linearGradient></defs>
<rect width="1200" height="630" fill="url(#bg)"/>
<circle cx="52" cy="50" r="9" fill="#f38ba8"/>
<circle cx="80" cy="50" r="9" fill="#f9e2af"/>
<circle cx="108" cy="50" r="9" fill="#a6e3a1"/>
<text x="144" y="57" font-size="22" fill="#bac2de">compose ~ ci/cd</text>
<text x="1148" y="57" font-size="18" fill="#585b70" text-anchor="end">~/posts</text>
<line x1="52" y1="84" x2="1148" y2="84" stroke="#313244" stroke-width="2"/>
<text x="52" y="176" font-size="40"><tspan fill="#a6e3a1">$ </tspan><tspan fill="#cdd6f4">dev builds local, prod pulls from ECR</tspan></text>
<rect x="52" y="246" width="257.5" height="238" rx="14" fill="#1e1e2e" stroke="#a6e3a1" stroke-opacity="0.5" stroke-width="2"/>
<path d="M 180.75 311.24 L 205.3 320.61 L 180.75 329.98 L 156.2 320.61 Z" fill="#a6e3a1" stroke="#a6e3a1" stroke-width="2.28"/><path d="M 180.75 324.63 L 205.3 334 L 180.75 343.37 L 156.2 334 Z" fill="none" stroke="#a6e3a1" stroke-width="2.28"/><path d="M 180.75 338.02 L 205.3 347.39 L 180.75 356.76 L 156.2 347.39 Z" fill="none" stroke="#a6e3a1" stroke-width="2.28"/>
<text x="72" y="418" font-size="19" fill="#cdd6f4">build vs image</text>
<text x="72" y="450" font-size="13" fill="#a6adc8">split dev + prod files</text>
<rect x="331.5" y="246" width="257.5" height="238" rx="14" fill="#1e1e2e" stroke="#fab387" stroke-opacity="0.5" stroke-width="2"/>
<path d="M 440.17 342.93 A 9.37 9.37 0 0 1 449.09 329.54 A 12.27 12.27 0 0 1 469.18 326.19 A 9.37 9.37 0 0 1 481.45 342.93 Z" fill="none" stroke="#fab387" stroke-width="2.68" stroke-linejoin="round"/>
<text x="351.5" y="418" font-size="19" fill="#cdd6f4">ECR_REGISTRY</text>
<text x="351.5" y="450" font-size="13" fill="#a6adc8">injected via .env</text>
<rect x="611" y="246" width="257.5" height="238" rx="14" fill="#1e1e2e" stroke="#89b4fa" stroke-opacity="0.5" stroke-width="2"/>
<rect x="704.94" y="326.19" width="13.84" height="15.62" rx="4" fill="none" stroke="#89b4fa" stroke-width="2.68"/><rect x="732.83" y="326.19" width="13.84" height="15.62" rx="4" fill="none" stroke="#89b4fa" stroke-width="2.68"/><rect x="760.73" y="326.19" width="13.84" height="15.62" rx="4" fill="none" stroke="#89b4fa" stroke-width="2.68"/><line x1="718.77" y1="334" x2="732.83" y2="334" stroke="#89b4fa" stroke-width="2.14" stroke-linecap="round"/><line x1="746.67" y1="334" x2="760.73" y2="334" stroke="#89b4fa" stroke-width="2.14" stroke-linecap="round"/>
<text x="631" y="418" font-size="19" fill="#cdd6f4">workflow_dispatch</text>
<text x="631" y="450" font-size="13" fill="#a6adc8">manual prod deploys</text>
<rect x="890.5" y="246" width="257.5" height="238" rx="14" fill="#1e1e2e" stroke="#cba6f7" stroke-opacity="0.5" stroke-width="2"/>
<path d="M 1006.98 330.65 L 1006.98 320.61 A 12.27 12.27 0 0 1 1031.52 320.61 L 1031.52 330.65" fill="none" stroke="#cba6f7" stroke-width="2.68"/><rect x="1004.74" y="330.65" width="29.01" height="23.43" rx="5" fill="none" stroke="#cba6f7" stroke-width="2.68"/><circle cx="1019.25" cy="341.14" r="3.57" fill="#cba6f7"/>
<text x="910.5" y="418" font-size="19" fill="#cdd6f4">Secrets Manager</text>
<text x="910.5" y="450" font-size="13" fill="#a6adc8">creds at deploy time</text>
<text x="52" y="572" font-size="24"><tspan fill="#a6e3a1">$ </tspan><tspan fill="#7f849c">split compose files; pull never builds local</tspan></text>
<text x="1148" y="572" font-size="22" fill="#45475a" text-anchor="end">@BrandonWie</text>
</svg>
