<svg viewBox="0 0 1200 630" xmlns="http://www.w3.org/2000/svg" font-family="'DejaVu Sans Mono','SF Mono',Menlo,Consolas,monospace">
<defs><linearGradient id="bg" x1="0" y1="0" x2="0" y2="1"><stop offset="0" stop-color="#181825"/><stop offset="1" stop-color="#11111b"/></linearGradient></defs>
<rect width="1200" height="630" fill="url(#bg)"/>
<circle cx="52" cy="50" r="9" fill="#f38ba8"/>
<circle cx="80" cy="50" r="9" fill="#f9e2af"/>
<circle cx="108" cy="50" r="9" fill="#a6e3a1"/>
<text x="144" y="57" font-size="22" fill="#bac2de">linux ~ k3s on nas</text>
<text x="1148" y="57" font-size="18" fill="#585b70" text-anchor="end">~/posts</text>
<line x1="52" y1="84" x2="1148" y2="84" stroke="#313244" stroke-width="2"/>
<text x="52" y="176" font-size="40"><tspan fill="#a6e3a1">$ </tspan><tspan fill="#cdd6f4">container fails trace to kernel fundamentals</tspan></text>
<rect x="52" y="246" width="257.5" height="238" rx="14" fill="#1e1e2e" stroke="#a6e3a1" stroke-opacity="0.5" stroke-width="2"/>
<circle cx="180.75" cy="334" r="13.84" fill="none" stroke="#a6e3a1" stroke-width="2.68"/><line x1="196.82" y1="334" x2="203.07" y2="334" stroke="#a6e3a1" stroke-width="2.95" stroke-linecap="round"/><line x1="192.11" y1="345.36" x2="196.53" y2="349.78" stroke="#a6e3a1" stroke-width="2.95" stroke-linecap="round"/><line x1="180.75" y1="350.07" x2="180.75" y2="356.32" stroke="#a6e3a1" stroke-width="2.95" stroke-linecap="round"/><line x1="169.39" y1="345.36" x2="164.97" y2="349.78" stroke="#a6e3a1" stroke-width="2.95" stroke-linecap="round"/><line x1="164.68" y1="334" x2="158.43" y2="334" stroke="#a6e3a1" stroke-width="2.95" stroke-linecap="round"/><line x1="169.39" y1="322.64" x2="164.97" y2="318.22" stroke="#a6e3a1" stroke-width="2.95" stroke-linecap="round"/><line x1="180.75" y1="317.93" x2="180.75" y2="311.68" stroke="#a6e3a1" stroke-width="2.95" stroke-linecap="round"/><line x1="192.11" y1="322.64" x2="196.53" y2="318.22" stroke="#a6e3a1" stroke-width="2.95" stroke-linecap="round"/><circle cx="180.75" cy="334" r="4.46" fill="#a6e3a1"/>
<text x="72" y="418" font-size="19" fill="#cdd6f4">cgroups</text>
<text x="72" y="450" font-size="13" fill="#a6adc8">resource limits + pids</text>
<rect x="331.5" y="246" width="257.5" height="238" rx="14" fill="#1e1e2e" stroke="#fab387" stroke-opacity="0.5" stroke-width="2"/>
<path d="M 460.25 311.24 L 484.8 320.61 L 460.25 329.98 L 435.7 320.61 Z" fill="#fab387" stroke="#fab387" stroke-width="2.28"/><path d="M 460.25 324.63 L 484.8 334 L 460.25 343.37 L 435.7 334 Z" fill="none" stroke="#fab387" stroke-width="2.28"/><path d="M 460.25 338.02 L 484.8 347.39 L 460.25 356.76 L 435.7 347.39 Z" fill="none" stroke="#fab387" stroke-width="2.28"/>
<text x="351.5" y="418" font-size="19" fill="#cdd6f4">overlayfs</text>
<text x="351.5" y="450" font-size="13" fill="#a6adc8">shared image layers</text>
<rect x="611" y="246" width="257.5" height="238" rx="14" fill="#1e1e2e" stroke="#89b4fa" stroke-opacity="0.5" stroke-width="2"/>
<path d="M 727.48 330.65 L 727.48 320.61 A 12.27 12.27 0 0 1 752.02 320.61 L 752.02 330.65" fill="none" stroke="#89b4fa" stroke-width="2.68"/><rect x="725.24" y="330.65" width="29.01" height="23.43" rx="5" fill="none" stroke="#89b4fa" stroke-width="2.68"/><circle cx="739.75" cy="341.14" r="3.57" fill="#89b4fa"/>
<text x="631" y="418" font-size="19" fill="#cdd6f4">file perms</text>
<text x="631" y="450" font-size="13" fill="#a6adc8">ssh wants 600/700</text>
<rect x="890.5" y="246" width="257.5" height="238" rx="14" fill="#1e1e2e" stroke="#cba6f7" stroke-opacity="0.5" stroke-width="2"/>
<path d="M 1019.25 311.68 L 1038.22 320.61 L 1038.22 337.35 Q 1038.22 351.85 1019.25 356.32 Q 1000.28 351.85 1000.28 337.35 L 1000.28 320.61 Z" fill="none" stroke="#cba6f7" stroke-width="2.68"/><path d="M 1010.32 335.12 L 1017.46 342.48 L 1029.29 327.31" fill="none" stroke="#cba6f7" stroke-width="2.68" stroke-linecap="round" stroke-linejoin="round"/>
<text x="910.5" y="418" font-size="19" fill="#cdd6f4">ACLs</text>
<text x="910.5" y="450" font-size="13" fill="#a6adc8">+ overrides chmod</text>
<text x="52" y="572" font-size="24"><tspan fill="#a6e3a1">$ </tspan><tspan fill="#7f849c">check /proc/cgroups and filesystems first</tspan></text>
<text x="1148" y="572" font-size="22" fill="#45475a" text-anchor="end">@BrandonWie</text>
</svg>
